<svg width="279" height="266" viewBox="0 0 279 266" fill="none" xmlns="http://www.w3.org/2000/svg">
<mask id="mask0_175_412" style="mask-type:luminance" maskUnits="userSpaceOnUse" x="0" y="55" width="137" height="211">
<path d="M0 55.8535H136.043V265.453H0V55.8535Z" fill="white"/>
</mask>
<g mask="url(#mask0_175_412)">
<path d="M55.5774 208.053C18.4151 167.156 1.01115 111.224 3.96347 56.1929C2.93754 61.7506 2.16994 67.3452 1.66804 72.9768C1.16615 78.6083 0.929965 84.2473 0.952106 89.9009C0.981629 95.5546 1.26948 101.194 1.83042 106.818C2.38398 112.442 3.20325 118.029 4.28084 123.579C5.35844 129.13 6.70174 134.614 8.29599 140.039C9.89025 145.464 11.7281 150.8 13.8242 156.048C15.9204 161.303 18.2601 166.44 20.836 171.473C23.4119 176.507 26.2166 181.401 29.2574 186.169C35.3466 195.719 42.2624 204.628 50.0049 212.902C57.7473 221.168 66.1909 228.652 75.321 235.354C84.451 242.063 94.1198 247.872 104.327 252.78C114.535 257.696 125.104 261.622 136.043 264.582C120.698 258.264 106.232 250.337 92.6584 240.801C79.0778 231.265 66.715 220.349 55.5774 208.053Z" fill="white"/>
</g>
<mask id="mask1_175_412" style="mask-type:luminance" maskUnits="userSpaceOnUse" x="9" y="0" width="270" height="260">
<path d="M9.44727 0.453369H278.699V259.918H9.44727V0.453369Z" fill="white"/>
</mask>
<g mask="url(#mask1_175_412)">
<path d="M277.901 112.471C274.152 88.5799 261.324 72.3126 241.049 72.2388L232.657 71.2055C230.945 64.4964 232.015 59.2117 226.273 55.6468L124.026 1.67106C122.742 0.99203 121.369 0.637752 119.908 0.615609C118.454 0.593467 117.066 0.903461 115.76 1.53821L16.4883 50.03C15.0564 50.709 13.905 51.6981 13.0193 53.0045C12.141 54.3182 11.6539 55.7575 11.5653 57.337C10.1039 84.86 12.3846 154.896 64.8768 210.54C75.1804 221.397 86.5911 230.926 99.1015 239.133C111.612 247.348 124.897 254.02 138.958 259.15C141.187 259.932 143.364 259.829 145.512 258.84C153.136 255.349 160.429 251.267 167.389 246.58C174.349 241.894 180.873 236.668 186.97 230.911C193.066 225.147 198.654 218.925 203.732 212.252C208.802 205.573 213.297 198.524 217.216 191.099C237.683 185.741 255.833 155.915 255.7 130.709L266.823 128.207C267.686 128.023 268.52 127.757 269.332 127.41C270.144 127.063 270.919 126.65 271.657 126.163C272.395 125.676 273.074 125.122 273.709 124.502C274.344 123.89 274.912 123.218 275.421 122.495C275.931 121.779 276.366 121.011 276.735 120.207C277.104 119.402 277.392 118.575 277.606 117.719C277.813 116.863 277.946 115.992 277.997 115.106C278.042 114.228 278.012 113.35 277.901 112.471ZM176.888 167.909C178.165 171.488 179.862 174.861 181.973 178.028L87.2849 149.538C74.1545 146.032 67.0025 127.934 70.4345 108.205L175.832 128.709C174.09 135.153 173.308 141.714 173.485 148.386C173.67 155.059 174.799 161.569 176.888 167.909ZM54.6765 101.895C55.5475 103.312 56.6989 104.449 58.1234 105.297C59.5552 106.154 61.0978 106.626 62.7585 106.714C58.4777 130.776 67.9103 152.461 85.1518 157.066L107.966 163.93V190.545C107.981 191.099 107.877 191.623 107.648 192.125C107.42 192.627 107.095 193.048 106.674 193.402C106.254 193.756 105.774 194 105.242 194.133C104.704 194.265 104.172 194.273 103.633 194.162L86.9454 191.047C43.8711 147.752 41.0221 89.7756 41.7971 66.8877C41.8413 65.8323 42.144 64.8654 42.727 63.9797C43.3027 63.094 44.063 62.415 45.0077 61.95C71.1357 49.3879 97.2563 36.7815 123.377 24.153C124.211 23.747 125.089 23.5625 126.012 23.592C126.942 23.6215 127.805 23.8725 128.603 24.3375L204.632 67.7513L107.294 55.7796C86.6354 50.4728 63.7549 66.9689 54.0123 94.2705C53.562 95.5252 53.3923 96.8242 53.5104 98.1528C53.6285 99.4887 54.0197 100.729 54.6765 101.895ZM102.179 201.845C103.006 201.993 103.847 202.052 104.689 202.015C105.53 201.986 106.357 201.86 107.169 201.646C107.988 201.432 108.77 201.13 109.516 200.746C110.269 200.362 110.962 199.897 111.612 199.358C112.261 198.827 112.845 198.222 113.361 197.557C113.878 196.893 114.313 196.177 114.675 195.417C115.037 194.657 115.31 193.867 115.502 193.04C115.686 192.221 115.782 191.387 115.79 190.545V166.277L142.375 174.278V208.643C142.375 211.477 141.858 214.216 140.818 216.858C139.777 219.5 138.294 221.855 136.36 223.936C122.425 218.209 109.612 210.584 97.9428 201.056L102.179 201.845ZM150.199 208.643V176.633L185.693 187.313C180.63 194.324 174.873 200.716 168.407 206.473C161.949 212.23 154.937 217.22 147.387 221.441C149.254 217.382 150.191 213.116 150.199 208.643ZM62.3673 98.6694C61.4005 98.3373 61.2012 97.8871 61.3709 96.898C68.7591 76.2171 84.2957 62.5995 99.3303 62.5995C101.441 62.5921 103.523 62.8652 105.56 63.404L222.619 77.8482C219.527 79.6934 216.648 81.8191 213.976 84.2326C208.979 88.912 204.617 94.1228 200.875 99.8577C197.141 105.593 194.144 111.689 191.878 118.155C191.62 118.893 191.243 119.564 190.749 120.162C190.247 120.768 189.664 121.262 188.985 121.653C188.306 122.044 187.582 122.31 186.815 122.443C186.047 122.576 185.272 122.576 184.505 122.428L62.3673 98.6694ZM194.417 211.529C187.302 220.209 179.286 227.944 170.37 234.749C161.447 241.554 151.867 247.237 141.615 251.799C128.13 246.868 115.391 240.469 103.39 232.594C91.396 224.726 80.4503 215.581 70.5674 205.174C20.1418 151.723 17.9719 84.2695 19.3816 57.7798C19.079 56.562 118.771 9.24375 119.192 8.56472C119.591 8.37282 119.989 8.3802 120.38 8.58686L222.531 62.5109C223.955 64.3266 223.638 67.1756 224.523 70.2017L215.534 69.0946C215.039 67.4856 214.271 66.0242 213.216 64.7104C212.161 63.3966 210.906 62.3264 209.444 61.4924L132.5 17.5545C130.581 16.4474 128.514 15.8569 126.3 15.7758C124.078 15.6946 121.975 16.1374 119.982 17.1043C93.8612 29.7254 67.7332 42.3245 41.6052 54.9087C40.5054 55.4475 39.4943 56.1192 38.5717 56.931C37.6491 57.7429 36.8519 58.6655 36.1803 59.6915C35.5086 60.7248 34.992 61.8171 34.6156 62.9907C34.2391 64.1568 34.0325 65.3599 33.9808 66.5851C30.7333 118.118 55.7394 201.506 134.751 231.76C136.552 232.505 138.426 232.837 140.375 232.764C142.323 232.682 144.161 232.195 145.888 231.302C155.454 226.468 164.274 220.526 172.349 213.478C180.416 206.436 187.501 198.502 193.583 189.682C193.583 189.675 200.078 191.653 200.071 191.63C202.499 192.295 204.972 192.627 207.488 192.634C203.65 199.284 199.288 205.588 194.417 211.529ZM245.596 146.002C225.357 209.854 169.249 187.918 183.523 130.156C184.335 130.289 185.162 130.34 185.988 130.326C186.815 130.311 187.634 130.23 188.446 130.067C189.251 129.912 190.048 129.691 190.823 129.396C191.59 129.1 192.336 128.746 193.044 128.325C193.753 127.905 194.424 127.425 195.052 126.886C195.679 126.347 196.262 125.757 196.786 125.122C197.31 124.487 197.783 123.808 198.189 123.092C198.595 122.369 198.942 121.624 199.222 120.849C203.245 109.372 209.607 99.3927 218.316 90.9048C243.817 86.8306 252.821 123.476 245.596 146.002ZM265.103 120.576L255.552 122.723C253.973 102.721 243.913 87.6573 229.129 83.7528C246.939 72.0174 267.443 88.2846 270.159 113.601C270.247 114.39 270.196 115.173 269.996 115.948C269.79 116.715 269.458 117.424 268.985 118.074C268.52 118.716 267.952 119.254 267.28 119.69C266.609 120.125 265.885 120.421 265.103 120.576Z" fill="white"/>
</g>
<path d="M221.254 113.505C198.241 109.017 187 156.417 211.704 162.602C236.163 166.063 245.087 119.387 221.254 113.505ZM226.96 140.09C225.24 147.213 221.476 155.346 213.202 154.926C198.603 149.885 206.803 119.358 219.756 121.181C227.609 123.889 228.022 132.842 226.96 140.09Z" fill="white"/>
</svg>
